<?xml version="1.0" encoding="utf-8"?>
<svg id="master-artboard" xmlns="http://www.w3.org/2000/svg" viewBox="0 0 500 500" width="50px" height="50px"><rect id="ee-background" x="0" y="0" width="500" height="500" style="fill: white; fill-opacity: 0; pointer-events: none;"/><g transform="matrix(4.317474365234376, 0, 0, 4.317474365234376, -789.1845764219214, -5176.610620140812)"><g id="g-1" transform="matrix(1.2587874502350642, 0, 0, 1.0833353996276855, -56.51208881317113, -103.98745727539062)">
	<g id="g-2">
		<g>
			<path class="st0" d="M236,1309.5l-46-26.7v-53.5l46-26.7l46,26.7v53.5L236,1309.5z M196,1279.3l40,23.3l40-23.3v-46.5l-40-23.3&#10;&#9;&#9;&#9;&#9;l-40,23.3V1279.3z" style="fill: rgb(0, 255, 166); fill-opacity: 1; stroke: rgb(0, 255, 166); stroke-width: 0; stroke-opacity: 0.82;"/>
		</g>
	</g>
</g></g><g transform="matrix(2.358489513397217, 0, 0, 2.28052306175232, -9.433822631835938, -1654.260690286947)"><g id="g-3" transform="matrix(2.1640009880065914, 0, 0, 0.9680005908012389, -131.48474205865153, 26.78144885332233)">
	<g id="g-4">
		<g>
			<path class="st0" d="M163,887H57V781h106V887z M63,881h94v-94H63V881z" style="fill: rgb(0, 255, 166); stroke: rgb(0, 255, 166); stroke-width: 6;"/>
		</g>
	</g>
</g></g><g transform="matrix(2.4056601524353027, 0, 0, 2.1992270946502686, 105.54158720058797, -1590.8609158231943)"><g id="g-7" transform="matrix(1, 0, 0, 1, -1.160554125533622, 1.8575916290283203)">
	<g id="g-8">
		<g>
			<path class="st0" d="M163,887H57V781h106V887z M63,881h94v-94H63V881z" style="fill: rgb(51, 51, 51); stroke: rgb(0, 255, 166); stroke-width: 6;"/>
		</g>
	</g>
</g></g><g transform="matrix(2.4999991226198297, 0, 0, 2.4999991226198297, -19.999937667865026, 2.5000658798119417)"><g id="g-11" transform="matrix(1.8093116005767347, 0.7843638106891507, -0.03978228893935302, 0.09178602554643589, -84.218403356977, 4.019406216821002)">
	<g id="g-12">
		<path class="st0" d="M58,49h100v100H58V49z" style="fill: rgb(0, 255, 166); stroke: rgb(0, 255, 166); stroke-width: 6; fill-opacity: 0.99;"/>
	</g>
</g></g></svg>